<?xml version="1.0" encoding="iso-8859-1"?>
<!-- Generator: Adobe Illustrator 18.1.1, SVG Export Plug-In . SVG Version: 6.00 Build 0)  -->
<svg version="1.1" id="Capa_1" xmlns="http://www.w3.org/2000/svg" 
	 viewBox="0 0 32 32" >
<g id="_x37_7_Essential_Icons_46_">
	<path id="Pie_Chart" d="M38,0C17,0,0,17,0,38c0,20.9,17,38,38,38c20.9,0,38-17,38-38C76,17.1,58.9,0,38,0z M40,4.1
		c17.2,1,30.9,14.8,31.9,31.9H40V4.1z M38,72C19.2,72,4,56.8,4,38C4,19.9,18.2,5.1,36,4.1V38c0,0.5,0.2,1,0.6,1.4l24,24
		C54.6,68.7,46.7,72,38,72z M63.4,60.6L42.8,40h29.1C71.5,47.9,68.3,55,63.4,60.6z"/>
</g>
<g>
</g>
<g>
</g>
<g>
</g>
<g>
</g>
<g>
</g>
<g>
</g>
<g>
</g>
<g>
</g>
<g>
</g>
<g>
</g>
<g>
</g>
<g>
</g>
<g>
</g>
<g>
</g>
<g>
</g>
</svg>
