<svg version="1.1" id="Capa_1" xmlns="http://www.w3.org/2000/svg" viewBox="0 0 195.669 195.669"><path d="M321.061 185.916L284.568 23.391l16.589-3.929L296.548 0 175.866 28.586V11.731h-20v21.592L30.574 63l4.609 19.462 10.502-2.488-35.016 155.942H4.417c0 29.721 24.094 53.815 53.817 53.815 29.722 0 53.816-24.094 53.816-53.815h-6.253L69.515 74.33l86.351-20.453v257.854h-47.632v20h115.264v-20h-47.632V49.139l85.317-20.208-35.249 156.985h-6.253c0 29.721 24.095 53.815 53.816 53.815 29.723 0 53.817-24.094 53.817-53.815h-6.253zm-235.761 50H31.167l27.066-120.54L85.3 235.916zm161.131-50l27.066-120.54 27.066 120.54h-54.132z"/></svg>