<svg xmlns="http://www.w3.org/2000/svg" viewBox="0 0 32 32"><path d="M431.379.219h-394.7C16.458.219 0 16.668 0 36.892V431.16c0 20.227 16.458 36.683 36.679 36.683h394.7c20.228 0 36.683-16.456 36.683-36.683V36.892C468.056 16.668 451.594.219 431.379.219zm-24.866 41.75c8.683 0 15.717 7.04 15.717 15.72 0 8.683-7.034 15.723-15.717 15.723s-15.717-7.045-15.717-15.729c0-8.674 7.034-15.714 15.717-15.714zm-56.324 0c8.683 0 15.716 7.04 15.716 15.72 0 8.683-7.033 15.723-15.716 15.723-8.689 0-15.723-7.04-15.723-15.723.013-8.68 7.04-15.72 15.723-15.72zm75.954 383.955H41.913V112.429h384.229v313.495z"/><path d="M55.502 297.3c18.752 11.673 32.353 25.599 38.677 25.599H115c-.417-1.832.062-3.759 1.409-5.112l12.995-12.998a5.503 5.503 0 0 1 7.778 0l12.995 12.998c1.356 1.354 1.835 3.28 1.41 5.112h14.443l9.085-9.078a3.95 3.95 0 0 1 5.604 0l9.085 9.078h13.595c-.284-1.803.26-3.658 1.581-4.977l13.654-13.653a5.773 5.773 0 0 1 8.189 0l13.651 13.653c1.324 1.324 1.867 3.174 1.584 4.977h34.271c12.082 23.91 36.824 40.348 65.444 40.348 40.518 0 73.364-32.847 73.364-73.365 0-40.512-32.847-73.361-73.364-73.361-30.074 0-55.893 18.12-67.218 44.014H94.179c-6.411 0-20.052 14.973-38.828 27.521a5.52 5.52 0 0 0-2.438 4.67 5.477 5.477 0 0 0 2.589 4.574zm292.854-30.955c0-6.076 4.918-10.994 11-10.994h10.392c6.082 0 11.006 4.918 11.006 10.994v47.073a11.001 11.001 0 0 1-11.006 11.006h-10.392c-6.082 0-11-4.924-11-11.006v-47.073z"/></svg>